#!OML:ASF F:\VICON\USERDATA\INSTALL\rory3\rory3.ASF
:FULLY-SPECIFIED
:DEGREES
206
root -0.0184585 14.245 -13.8116 28.2986 1.86722 6.62829
lowerback 34.7217 -0.912274 -1.87509
upperback 3.95476 -1.872 -0.451496
thorax -13.2474 -0.726985 1.29031
lowerneck -14.5693 -3.23744 -6.93325
upperneck -23.0702 -2.38145 8.76436
head -4.43295 -1.01771 3.95838
rclavicle 3.18055e-015 -5.36719e-015
rhumerus -35.8887 -8.90212 -67.6832
rradius 19.2281
rwrist 19.9416
rhand -30.7447 4.16464
rfingers 7.12502
rthumb -4.03659 -25.7769
lclavicle 3.18055e-015 -5.36719e-015
lhumerus -41.5579 -13.7206 82.8885
lradius 32.0725
lwrist 10.2627
lhand -18.4886 24.3817
lfingers 7.12502
lthumb 7.7988 54.2178
rfemur -78.7244 -4.13021 10.0811
rtibia 97.4688
rfoot -38.5995 -17.8205
rtoes -16.6861
lfemur -77.1023 -4.24221 -26.5228
ltibia 90.6794
lfoot -36.4937 0.873955
ltoes -7.90486
207
root -0.0256175 14.1869 -13.7455 28.2134 1.93678 6.78804
lowerback 34.7902 -0.812287 -2.07642
upperback 3.90172 -1.81685 -0.410388
thorax -13.3292 -0.690269 1.42144
lowerneck -14.7459 -3.31441 -6.98438
upperneck -23.2748 -2.47075 8.69239
head -4.46789 -1.05087 3.94603
rclavicle 2.3059e-014 -3.57812e-015
rhumerus -34.708 -7.91625 -68.6382
rradius 19.8457
rwrist 18.6125
rhand -30.405 3.87866
rfingers 7.12502
rthumb -3.70853 -26.0688
lclavicle 2.3059e-014 -3.57812e-015
lhumerus -39.9264 -13.6057 83.1733
lradius 32.25
lwrist 10.6067
lhand -18.4474 24.0023
lfingers 7.12502
lthumb 7.8385 53.837
rfemur -78.972 -4.80251 10.3037
rtibia 98.5123
rfoot -38.7695 -17.1505
rtoes -16.0712
lfemur -76.9895 -4.09678 -26.8291
ltibia 91.2395
lfoot -36.909 1.20996
ltoes -9.19836
208
root -0.0312863 14.1376 -13.6734 28.049 2.0463 6.74211
lowerback 34.8317 -0.735753 -2.06697
upperback 3.89261 -1.71152 -0.365298
thorax -13.3584 -0.643022 1.42214
lowerneck -14.8569 -3.38598 -7.03542
upperneck -23.6175 -2.53412 8.72121
head -4.55487 -1.07663 3.97111
rclavicle 3.33958e-014 1.19271e-014
rhumerus -33.3823 -6.77474 -69.7022
rradius 20.5073
rwrist 16.8217
rhand -29.7449 3.07207
rfingers 7.12502
rthumb -3.07107 -26.8856
lclavicle 3.33958e-014 1.19271e-014
lhumerus -38.079 -13.4749 83.3721
lradius 32.2956
lwrist 10.6789
lhand -18.3747 23.9926
lfingers 7.12502
lthumb 7.90871 53.8247
rfemur -79.0586 -5.32323 10.7109
rtibia 99.4314
rfoot -38.7279 -16.8113
rtoes -15.7843
lfemur -76.7834 -3.87738 -26.8948
ltibia 91.8061
lfoot -37.3762 1.2224
ltoes -9.81543
209
root -0.0381941 14.0824 -13.6027 27.912 2.25158 6.70982
lowerback 34.7858 -0.741862 -1.97054
upperback 3.89268 -1.67634 -0.328488
thorax -13.3432 -0.631729 1.39512
lowerneck -14.8637 -3.42124 -7.18441
upperneck -24.1187 -2.5155 8.87284
head -4.70866 -1.06035 4.06008
rclavicle 1.39149e-014 4.77083e-015
rhumerus -31.9052 -5.58845 -70.7343
rradius 21.0557
rwrist 15.3004
rhand -29.8907 2.97287
rfingers 7.12502
rthumb -3.2119 -26.9827
lclavicle 1.39149e-014 4.77083e-015
lhumerus -36.073 -13.3034 83.5198
lradius 32.2413
lwrist 10.6851
lhand -18.1446 24.2672
lfingers 7.12502
lthumb 8.1308 54.0908
rfemur -79.1987 -5.90414 11.1419
rtibia 100.405
rfoot -38.4951 -16.6005
rtoes -15.8704
lfemur -76.6369 -3.73581 -26.9037
ltibia 92.3978
lfoot -37.7552 0.597676
ltoes -9.06903
210
root -0.0458536 14.0269 -13.5333 27.7634 2.37707 6.83822
lowerback 34.7481 -0.723157 -2.03941
upperback 3.8257 -1.67904 -0.330409
thorax -13.4035 -0.628075 1.43168
lowerneck -14.7445 -3.45097 -7.39507
upperneck -24.5866 -2.48704 9.05556
head -4.86933 -1.03759 4.17114
rclavicle -3.97569e-016 -1.03368e-014
rhumerus -30.4688 -4.50419 -71.5994
rradius 21.3818
rwrist 14.9217
rhand -31.1779 3.91704
rfingers 7.12502
rthumb -4.45496 -26.0161
lclavicle -3.97569e-016 -1.03368e-014
lhumerus -34.0985 -13.1248 83.7067
lradius 32.0663
lwrist 10.688
lhand -18.4974 23.8735
lfingers 7.12502
lthumb 7.7903 53.71
rfemur -79.3789 -6.53138 11.3442
rtibia 101.394
rfoot -38.2086 -16.21
rtoes -16.4153
lfemur -76.4573 -3.59974 -27.1
ltibia 92.9798
lfoot -38.0669 -0.0389242
ltoes -8.20563
211
root -0.0533211 13.9821 -13.4605 27.5039 2.45875 6.99489
lowerback 34.7887 -0.70422 -2.1427
upperback 3.71632 -1.70347 -0.372122
thorax -13.5433 -0.631223 1.45449
lowerneck -14.6992 -3.46802 -7.46217
upperneck -24.8426 -2.48522 9.09525
head -4.95641 -1.03219 4.20381
rclavicle -2.78299e-015 1.23246e-014
rhumerus -29.0767 -3.43114 -72.43
rradius 21.6199
rwrist 15.4128
rhand -33.4058 4.93284
rfingers 7.12502
rthumb -6.60596 -24.9441
lclavicle -2.78299e-015 1.23246e-014
lhumerus -32.1774 -12.9358 83.8501
lradius 31.8816
lwrist 10.6447
lhand -19.0382 23.1816
lfingers 7.12502
lthumb 7.26824 53.0368
rfemur -79.3787 -7.15568 11.4742
rtibia 102.304
rfoot -37.9245 -15.813
rtoes -17.1382
lfemur -76.0886 -3.43618 -27.3398
ltibia 93.5103
lfoot -38.3571 -0.608688
ltoes -7.23365
212
root -0.0601029 13.9372 -13.3857 27.1908 2.59734 7.07418
lowerback 34.8282 -0.743402 -2.15027
upperback 3.625 -1.7665 -0.42291
thorax -13.664 -0.656563 1.43204
lowerneck -14.6746 -3.42219 -7.44298
upperneck -25.0887 -2.4154 9.06456
head -5.04667 -0.996266 4.19912
rclavicle 1.07344e-014 3.57812e-015
rhumerus -27.5356 -2.35304 -73.2619
rradius 22.0526
rwrist 15.6914
rhand -35.3222 6.02541
rfingers 7.12502
rthumb -8.45571 -23.7853
lclavicle 1.07344e-014 3.57812e-015
lhumerus -30.2414 -12.9771 84.0008
lradius 31.7688
lwrist 10.7171
lhand -19.5718 23.2453
lfingers 7.12502
lthumb 6.75324 53.1177
rfemur -79.2497 -7.75259 11.6444
rtibia 103.213
rfoot -37.5986 -15.3743
rtoes -18.3833
lfemur -75.7153 -3.24955 -27.5095
ltibia 94.1024
lfoot -38.7014 -0.791473
ltoes -7.49558
213
root -0.0671969 13.8856 -13.3123 26.8391 2.79409 7.03158
lowerback 34.78 -0.791198 -2.05109
upperback 3.62001 -1.78541 -0.4033
thorax -13.6527 -0.669708 1.40755
lowerneck -14.8908 -3.37355 -7.41402
upperneck -25.1766 -2.35312 8.91297
head -5.05534 -0.953577 4.14545
rclavicle 2.38542e-015 7.15625e-015
rhumerus -25.7874 -1.50463 -73.8673
rradius 22.6986
rwrist 15.6108
rhand -37.3737 7.83261
rfingers 7.12502
rthumb -10.4352 -21.8884
lclavicle 2.38542e-015 7.15625e-015
lhumerus -28.1519 -13.1103 84.2371
lradius 31.7003
lwrist 10.6601
lhand -20.2717 23.4993
lfingers 7.12502
lthumb 6.07747 53.3921
rfemur -79.086 -8.27004 11.9526
rtibia 104.162
rfoot -37.0368 -15.2199
rtoes -20.8858
lfemur -75.3816 -2.9582 -27.5908
ltibia 94.7683
lfoot -38.9708 -0.816752
ltoes -8.61676
214
root -0.073915 13.839 -13.2341 26.5491 2.95178 6.99974
lowerback 34.5761 -0.826898 -1.97811
upperback 3.58398 -1.79701 -0.383357
thorax -13.6148 -0.679156 1.39281
lowerneck -15.2077 -3.36363 -7.30463
upperneck -25.1054 -2.37004 8.67603
head -4.99571 -0.952354 4.04314
rclavicle 8.74653e-015 -1.07344e-014
rhumerus -24.1611 -0.796004 -74.317
rradius 23.6566
rwrist 15.8749
rhand -39.3736 8.90591
rfingers 7.12502
rthumb -12.3638 -20.7085
lclavicle 8.74653e-015 -1.07344e-014
lhumerus -26.1278 -13.2085 84.4652
lradius 31.7702
lwrist 10.5289
lhand -20.8467 23.7167
lfingers 7.12502
lthumb 5.52234 53.6248
rfemur -78.9543 -8.74812 12.2222
rtibia 105.048
rfoot -36.6307 -15.1027
rtoes -22.5229
lfemur -75.0793 -2.64388 -27.7221
ltibia 95.4391
lfoot -39.1989 -0.678619
ltoes -9.35201
215
root -0.0779631 13.8093 -13.1497 26.0481 3.22886 7.10981
lowerback 34.6712 -0.986907 -1.87485
upperback 3.47282 -1.96926 -0.416276
thorax -13.7811 -0.756579 1.37729
lowerneck -15.3088 -3.37055 -7.10193
upperneck -25.0905 -2.43733 8.44225
head -4.98195 -0.991087 3.9294
rclavicle -3.37934e-014 3.97569e-015
rhumerus -22.7223 0.244339 -74.8604
rradius 25.0124
rwrist 15.9069
rhand -38.078 5.84753
rfingers 7.12502
rthumb -11.1145 -23.8381
lclavicle -3.37934e-014 3.97569e-015
lhumerus -24.4017 -13.0222 84.5671
lradius 32.1647
lwrist 10.0724
lhand -21.4902 23.5491
lfingers 7.12502
lthumb 4.901 53.4724
rfemur -78.3449 -9.41216 12.2914
rtibia 105.764
rfoot -36.2233 -14.8949
rtoes -23.9334
lfemur -74.3897 -2.46474 -27.9503
ltibia 96.0523
lfoot -39.4398 -0.890135
ltoes -8.97055
216
root -0.0828495 13.7756 -13.067 25.5205 3.43426 7.10133
lowerback 34.7285 -1.13528 -1.74492
upperback 3.3863 -2.11153 -0.419707
thorax -13.9052 -0.822942 1.36642
lowerneck -15.5424 -3.37434 -6.98302
upperneck -25.0462 -2.47618 8.25385
head -4.93987 -1.0079 3.84314
rclavicle -1.19271e-015 3.18055e-015
rhumerus -21.1992 1.53284 -75.3645
rradius 26.7149
rwrist 15.4434
rhand -40.535 6.93447
rfingers 7.12502
rthumb -13.4835 -22.6091
lclavicle -1.19271e-015 3.18055e-015
lhumerus -22.824 -12.7063 84.6416
lradius 33.0605
lwrist 9.80349
lhand -22.1715 23.0766
lfingers 7.12502
lthumb 4.24315 53.014
rfemur -77.7233 -9.93541 12.4182
rtibia 106.419
rfoot -36.1519 -14.3879
rtoes -24.3378
lfemur -73.6736 -2.12168 -28.0961
ltibia 96.6539
lfoot -39.6389 -1.0907
ltoes -9.79254
